ffmpeg started on 2025-06-16 at 16:23:01
Report written to "D:\Convert\FFMetrics\reports\ssim_report-6.txt"
Log level: 32
Command line:
ffmpeg -hide_banner -nostdin -i "G:\\\xc0\xed\xe8\xec\xe5\\[\xd2\xee\xef]\\\xd0\xfb\xf6\xe0\xf0\xfc-\xe2\xe0\xec\xef\xe8\xf0\\\xd2\xc2-1\\[JamClub] Vampire Knight - 06_HEVC.mkv" -i "G:\\\xc0\xed\xe8\xec\xe5\\[\xd2\xee\xef]\\\xd0\xfb\xf6\xe0\xf0\xfc-\xe2\xe0\xec\xef\xe8\xf0\\\xd2\xc2-1\\[JamClub] Vampire Knight - 06.mp4" -lavfi "[0:v]settb=AVTB,setpts=PTS-STARTPTS,format=pix_fmts=yuv420p10,fps=24000/1001,scale=1920:1080:flags=bicubic[main];[1:v]settb=AVTB,setpts=PTS-STARTPTS,format=pix_fmts=yuv420p,fps=24000/1001,scale=1920:1080:flags=bicubic[ref];[main][ref]ssim=eof_action=endall:stats_file='D\\:/Convert/FFMetrics/logs/ssim_logfile-6.txt'" -f null -
Input #0, matroska,webm, from 'G:\Аниме\[Топ]\Рыцарь-вампир\ТВ-1\[JamClub] Vampire Knight - 06_HEVC.mkv':
  Metadata:
    COMPATIBLE_BRANDS: isomiso2avc1mp41
    MAJOR_BRAND     : isom
    MINOR_VERSION   : 512
    ENCODER         : Lavf61.7.100
  Duration: 00:24:22.09, start: -0.001000, bitrate: 871 kb/s
  Stream #0:0: Video: hevc (Main 10), yuv420p10le(tv, bt709, progressive), 1920x1080 [SAR 1:1 DAR 16:9], 23.98 fps, 23.98 tbr, 1k tbn (default)
      Metadata:
        HANDLER_NAME    : VideoHandler
        VENDOR_ID       : [0][0][0][0]
        ENCODER         : Lavc61.19.100 libx265
        BPS             : 673263
        DURATION        : 00:24:22.043708333
        NUMBER_OF_FRAMES: 43684
        NUMBER_OF_BYTES : 123042550
        _STATISTICS_WRITING_APP: mkvpropedit v66.0.0 ('Josie') 64-bit
        _STATISTICS_WRITING_DATE_UTC: 2025-06-16 08:10:13
        _STATISTICS_TAGS: BPS DURATION NUMBER_OF_FRAMES NUMBER_OF_BYTES
  Stream #0:1(eng): Audio: aac (LC), 48000 Hz, stereo, fltp (default)
      Metadata:
        HANDLER_NAME    : SoundHandler
        VENDOR_ID       : [0][0][0][0]
        ENCODER         : Lavc61.19.100 aac
        BPS             : 194262
        DURATION        : 00:24:22.053000000
        NUMBER_OF_FRAMES: 68535
        NUMBER_OF_BYTES : 35502756
        _STATISTICS_WRITING_APP: mkvpropedit v66.0.0 ('Josie') 64-bit
        _STATISTICS_WRITING_DATE_UTC: 2025-06-16 08:10:13
        _STATISTICS_TAGS: BPS DURATION NUMBER_OF_FRAMES NUMBER_OF_BYTES
Input #1, mov,mp4,m4a,3gp,3g2,mj2, from 'G:\Аниме\[Топ]\Рыцарь-вампир\ТВ-1\[JamClub] Vampire Knight - 06.mp4':
  Metadata:
    major_brand     : isom
    minor_version   : 512
    compatible_brands: isomiso2avc1mp41
    encoder         : Lavf60.16.100
  Duration: 00:24:22.07, start: 0.000000, bitrate: 3344 kb/s
  Stream #1:0[0x1](und): Video: h264 (High) (avc1 / 0x31637661), yuv420p(progressive), 1920x1080 [SAR 1:1 DAR 16:9], 3144 kb/s, 29.88 fps, 23.98 tbr, 90k tbn (default)
      Metadata:
        handler_name    : VideoHandler
        vendor_id       : [0][0][0][0]
  Stream #1:1[0x2](eng): Audio: aac (LC) (mp4a / 0x6134706D), 48000 Hz, stereo, fltp, 191 kb/s (default)
      Metadata:
        handler_name    : SoundHandler
        vendor_id       : [0][0][0][0]
Stream mapping:
  Stream #0:0 (hevc) -> settb:default
  Stream #1:0 (h264) -> settb:default
  ssim:default -> Stream #0:0 (wrapped_avframe)
  Stream #0:1 -> #0:1 (aac (native) -> pcm_s16le (native))
Output #0, null, to 'pipe:':
  Metadata:
    COMPATIBLE_BRANDS: isomiso2avc1mp41
    MAJOR_BRAND     : isom
    MINOR_VERSION   : 512
    encoder         : Lavf61.7.100
  Stream #0:0: Video: wrapped_avframe, yuv420p10le(tv, bt709, progressive), 1920x1080 [SAR 1:1 DAR 16:9], q=2-31, 200 kb/s, 23.98 fps, 23.98 tbn
      Metadata:
        encoder         : Lavc61.19.100 wrapped_avframe
  Stream #0:1(eng): Audio: pcm_s16le, 48000 Hz, stereo, s16, 1536 kb/s (default)
      Metadata:
        HANDLER_NAME    : SoundHandler
        VENDOR_ID       : [0][0][0][0]
        _STATISTICS_TAGS: BPS DURATION NUMBER_OF_FRAMES NUMBER_OF_BYTES
        BPS             : 194262
        DURATION        : 00:24:22.053000000
        NUMBER_OF_FRAMES: 68535
        NUMBER_OF_BYTES : 35502756
        _STATISTICS_WRITING_APP: mkvpropedit v66.0.0 ('Josie') 64-bit
        _STATISTICS_WRITING_DATE_UTC: 2025-06-16 08:10:13
        encoder         : Lavc61.19.100 pcm_s16le
frame=  118 fps=0.0 q=-0.0 size=N/A time=00:00:04.92 bitrate=N/A speed=9.62x    frame=  285 fps=279 q=-0.0 size=N/A time=00:00:11.88 bitrate=N/A speed=11.6x    frame=  495 fps=320 q=-0.0 size=N/A time=00:00:20.64 bitrate=N/A speed=13.4x    frame=  706 fps=343 q=-0.0 size=N/A time=00:00:29.44 bitrate=N/A speed=14.3x    frame=  893 fps=348 q=-0.0 size=N/A time=00:00:37.24 bitrate=N/A speed=14.5x    frame= 1097 fps=354 q=-0.0 size=N/A time=00:00:45.75 bitrate=N/A speed=14.8x    frame= 1306 fps=362 q=-0.0 size=N/A time=00:00:54.47 bitrate=N/A speed=15.1x    frame= 1522 fps=370 q=-0.0 size=N/A time=00:01:03.48 bitrate=N/A speed=15.4x    frame= 1743 fps=375 q=-0.0 size=N/A time=00:01:12.69 bitrate=N/A speed=15.7x    frame= 1967 fps=382 q=-0.0 size=N/A time=00:01:22.04 bitrate=N/A speed=15.9x    frame= 2157 fps=381 q=-0.0 size=N/A time=00:01:29.96 bitrate=N/A speed=15.9x    frame= 2328 fps=376 q=-0.0 size=N/A time=00:01:37.09 bitrate=N/A speed=15.7x    frame= 2481 fps=370 q=-0.0 size=N/A time=00:01:43.47 bitrate=N/A speed=15.4x    frame= 2663 fps=369 q=-0.0 size=N/A time=00:01:51.06 bitrate=N/A speed=15.4x    frame= 2843 fps=368 q=-0.0 size=N/A time=00:01:58.57 bitrate=N/A speed=15.3x    frame= 3048 fps=370 q=-0.0 size=N/A time=00:02:07.12 bitrate=N/A speed=15.4x    frame= 3195 fps=365 q=-0.0 size=N/A time=00:02:13.25 bitrate=N/A speed=15.2x    frame= 3381 fps=364 q=-0.0 size=N/A time=00:02:21.01 bitrate=N/A speed=15.2x    frame= 3544 fps=362 q=-0.0 size=N/A time=00:02:27.81 bitrate=N/A speed=15.1x    frame= 3742 fps=363 q=-0.0 size=N/A time=00:02:36.07 bitrate=N/A speed=15.1x    frame= 3932 fps=363 q=-0.0 size=N/A time=00:02:43.99 bitrate=N/A speed=15.2x    frame= 4134 fps=365 q=-0.0 size=N/A time=00:02:52.42 bitrate=N/A speed=15.2x    frame= 4356 fps=367 q=-0.0 size=N/A time=00:03:01.68 bitrate=N/A speed=15.3x    frame= 4581 fps=370 q=-0.0 size=N/A time=00:03:11.06 bitrate=N/A speed=15.4x    frame= 4818 fps=374 q=-0.0 size=N/A time=00:03:20.95 bitrate=N/A speed=15.6x    frame= 5053 fps=377 q=-0.0 size=N/A time=00:03:30.75 bitrate=N/A speed=15.7x    frame= 5284 fps=380 q=-0.0 size=N/A time=00:03:40.38 bitrate=N/A speed=15.8x    frame= 5513 fps=382 q=-0.0 size=N/A time=00:03:49.93 bitrate=N/A speed=15.9x    frame= 5753 fps=385 q=-0.0 size=N/A time=00:03:59.94 bitrate=N/A speed=  16x    frame= 5959 fps=385 q=-0.0 size=N/A time=00:04:08.53 bitrate=N/A speed=16.1x    frame= 6185 fps=387 q=-0.0 size=N/A time=00:04:17.96 bitrate=N/A speed=16.1x    frame= 6426 fps=390 q=-0.0 size=N/A time=00:04:28.01 bitrate=N/A speed=16.3x    frame= 6662 fps=392 q=-0.0 size=N/A time=00:04:37.86 bitrate=N/A speed=16.3x    frame= 6894 fps=393 q=-0.0 size=N/A time=00:04:47.53 bitrate=N/A speed=16.4x    frame= 7134 fps=396 q=-0.0 size=N/A time=00:04:57.54 bitrate=N/A speed=16.5x    frame= 7366 fps=397 q=-0.0 size=N/A time=00:05:07.22 bitrate=N/A speed=16.6x    frame= 7575 fps=397 q=-0.0 size=N/A time=00:05:15.94 bitrate=N/A speed=16.6x    frame= 7800 fps=398 q=-0.0 size=N/A time=00:05:25.32 bitrate=N/A speed=16.6x    frame= 8042 fps=400 q=-0.0 size=N/A time=00:05:35.41 bitrate=N/A speed=16.7x    frame= 8283 fps=401 q=-0.0 size=N/A time=00:05:45.47 bitrate=N/A speed=16.7x    frame= 8501 fps=402 q=-0.0 size=N/A time=00:05:54.56 bitrate=N/A speed=16.8x    frame= 8732 fps=403 q=-0.0 size=N/A time=00:06:04.19 bitrate=N/A speed=16.8x    frame= 8928 fps=403 q=-0.0 size=N/A time=00:06:12.37 bitrate=N/A speed=16.8x    frame= 9145 fps=403 q=-0.0 size=N/A time=00:06:21.42 bitrate=N/A speed=16.8x    frame= 9350 fps=403 q=-0.0 size=N/A time=00:06:29.97 bitrate=N/A speed=16.8x    frame= 9541 fps=402 q=-0.0 size=N/A time=00:06:37.93 bitrate=N/A speed=16.8x    frame= 9775 fps=403 q=-0.0 size=N/A time=00:06:47.69 bitrate=N/A speed=16.8x    frame=10013 fps=404 q=-0.0 size=N/A time=00:06:57.62 bitrate=N/A speed=16.9x    frame=10242 fps=405 q=-0.0 size=N/A time=00:07:07.17 bitrate=N/A speed=16.9x    frame=10486 fps=407 q=-0.0 size=N/A time=00:07:17.35 bitrate=N/A speed=  17x    frame=10723 fps=408 q=-0.0 size=N/A time=00:07:27.23 bitrate=N/A speed=  17x    frame=10977 fps=409 q=-0.0 size=N/A time=00:07:37.83 bitrate=N/A speed=17.1x    frame=11209 fps=410 q=-0.0 size=N/A time=00:07:47.50 bitrate=N/A speed=17.1x    frame=11453 fps=411 q=-0.0 size=N/A time=00:07:57.68 bitrate=N/A speed=17.2x    frame=11686 fps=412 q=-0.0 size=N/A time=00:08:07.40 bitrate=N/A speed=17.2x    frame=11913 fps=412 q=-0.0 size=N/A time=00:08:16.87 bitrate=N/A speed=17.2x    frame=12155 fps=413 q=-0.0 size=N/A time=00:08:26.96 bitrate=N/A speed=17.2x    frame=12384 fps=414 q=-0.0 size=N/A time=00:08:36.51 bitrate=N/A speed=17.3x    frame=12635 fps=415 q=-0.0 size=N/A time=00:08:46.98 bitrate=N/A speed=17.3x    frame=12874 fps=416 q=-0.0 size=N/A time=00:08:56.95 bitrate=N/A speed=17.4x    frame=13125 fps=417 q=-0.0 size=N/A time=00:09:07.42 bitrate=N/A speed=17.4x    frame=13365 fps=418 q=-0.0 size=N/A time=00:09:17.43 bitrate=N/A speed=17.4x    frame=13602 fps=419 q=-0.0 size=N/A time=00:09:27.31 bitrate=N/A speed=17.5x    frame=13844 fps=419 q=-0.0 size=N/A time=00:09:37.41 bitrate=N/A speed=17.5x    frame=14079 fps=420 q=-0.0 size=N/A time=00:09:47.21 bitrate=N/A speed=17.5x    frame=14309 fps=420 q=-0.0 size=N/A time=00:09:56.80 bitrate=N/A speed=17.5x    frame=14537 fps=420 q=-0.0 size=N/A time=00:10:06.31 bitrate=N/A speed=17.5x    frame=14765 fps=421 q=-0.0 size=N/A time=00:10:15.82 bitrate=N/A speed=17.6x    frame=15010 fps=422 q=-0.0 size=N/A time=00:10:26.04 bitrate=N/A speed=17.6x    frame=15235 fps=422 q=-0.0 size=N/A time=00:10:35.42 bitrate=N/A speed=17.6x    frame=15459 fps=422 q=-0.0 size=N/A time=00:10:44.76 bitrate=N/A speed=17.6x    frame=15692 fps=422 q=-0.0 size=N/A time=00:10:54.48 bitrate=N/A speed=17.6x    frame=15925 fps=423 q=-0.0 size=N/A time=00:11:04.20 bitrate=N/A speed=17.6x    frame=16149 fps=423 q=-0.0 size=N/A time=00:11:13.54 bitrate=N/A speed=17.6x    frame=16398 fps=424 q=-0.0 size=N/A time=00:11:23.93 bitrate=N/A speed=17.7x    frame=16635 fps=424 q=-0.0 size=N/A time=00:11:33.81 bitrate=N/A speed=17.7x    frame=16857 fps=424 q=-0.0 size=N/A time=00:11:43.07 bitrate=N/A speed=17.7x    frame=17073 fps=424 q=-0.0 size=N/A time=00:11:52.08 bitrate=N/A speed=17.7x    frame=17303 fps=424 q=-0.0 size=N/A time=00:12:01.67 bitrate=N/A speed=17.7x    frame=17520 fps=424 q=-0.0 size=N/A time=00:12:10.73 bitrate=N/A speed=17.7x    frame=17739 fps=424 q=-0.0 size=N/A time=00:12:19.86 bitrate=N/A speed=17.7x    frame=17975 fps=425 q=-0.0 size=N/A time=00:12:29.70 bitrate=N/A speed=17.7x    frame=18226 fps=425 q=-0.0 size=N/A time=00:12:40.17 bitrate=N/A speed=17.7x    frame=18481 fps=426 q=-0.0 size=N/A time=00:12:50.81 bitrate=N/A speed=17.8x    frame=18717 fps=427 q=-0.0 size=N/A time=00:13:00.65 bitrate=N/A speed=17.8x    frame=18951 fps=427 q=-0.0 size=N/A time=00:13:10.41 bitrate=N/A speed=17.8x    frame=19188 fps=427 q=-0.0 size=N/A time=00:13:20.29 bitrate=N/A speed=17.8x    frame=19406 fps=427 q=-0.0 size=N/A time=00:13:29.39 bitrate=N/A speed=17.8x    frame=19639 fps=427 q=-0.0 size=N/A time=00:13:39.10 bitrate=N/A speed=17.8x    frame=19865 fps=428 q=-0.0 size=N/A time=00:13:48.53 bitrate=N/A speed=17.8x    frame=20097 fps=428 q=-0.0 size=N/A time=00:13:58.21 bitrate=N/A speed=17.8x    frame=20337 fps=428 q=-0.0 size=N/A time=00:14:08.22 bitrate=N/A speed=17.9x    frame=20583 fps=429 q=-0.0 size=N/A time=00:14:18.48 bitrate=N/A speed=17.9x    frame=20797 fps=429 q=-0.0 size=N/A time=00:14:27.40 bitrate=N/A speed=17.9x    frame=21036 fps=429 q=-0.0 size=N/A time=00:14:37.37 bitrate=N/A speed=17.9x    frame=21253 fps=429 q=-0.0 size=N/A time=00:14:46.42 bitrate=N/A speed=17.9x    frame=21485 fps=429 q=-0.0 size=N/A time=00:14:56.10 bitrate=N/A speed=17.9x    frame=21731 fps=430 q=-0.0 size=N/A time=00:15:06.36 bitrate=N/A speed=17.9x    frame=21956 fps=430 q=-0.0 size=N/A time=00:15:15.74 bitrate=N/A speed=17.9x    frame=22195 fps=430 q=-0.0 size=N/A time=00:15:25.71 bitrate=N/A speed=17.9x    frame=22449 fps=430 q=-0.0 size=N/A time=00:15:36.31 bitrate=N/A speed=  18x    frame=22685 fps=431 q=-0.0 size=N/A time=00:15:46.15 bitrate=N/A speed=  18x    frame=22942 fps=431 q=-0.0 size=N/A time=00:15:56.87 bitrate=N/A speed=  18x    frame=23180 fps=432 q=-0.0 size=N/A time=00:16:06.79 bitrate=N/A speed=  18x    frame=23409 fps=432 q=-0.0 size=N/A time=00:16:16.35 bitrate=N/A speed=  18x    frame=23657 fps=432 q=-0.0 size=N/A time=00:16:26.69 bitrate=N/A speed=  18x    frame=23878 fps=432 q=-0.0 size=N/A time=00:16:35.91 bitrate=N/A speed=  18x    frame=24104 fps=432 q=-0.0 size=N/A time=00:16:45.33 bitrate=N/A speed=  18x    frame=24331 fps=432 q=-0.0 size=N/A time=00:16:54.80 bitrate=N/A speed=  18x    frame=24564 fps=432 q=-0.0 size=N/A time=00:17:04.52 bitrate=N/A speed=  18x    frame=24822 fps=433 q=-0.0 size=N/A time=00:17:15.28 bitrate=N/A speed=18.1x    frame=25061 fps=433 q=-0.0 size=N/A time=00:17:25.25 bitrate=N/A speed=18.1x    frame=25295 fps=434 q=-0.0 size=N/A time=00:17:35.01 bitrate=N/A speed=18.1x    frame=25527 fps=434 q=-0.0 size=N/A time=00:17:44.68 bitrate=N/A speed=18.1x    frame=25751 fps=434 q=-0.0 size=N/A time=00:17:54.03 bitrate=N/A speed=18.1x    frame=25977 fps=434 q=-0.0 size=N/A time=00:18:03.45 bitrate=N/A speed=18.1x    frame=26209 fps=434 q=-0.0 size=N/A time=00:18:13.13 bitrate=N/A speed=18.1x    frame=26437 fps=434 q=-0.0 size=N/A time=00:18:22.64 bitrate=N/A speed=18.1x    frame=26681 fps=434 q=-0.0 size=N/A time=00:18:32.82 bitrate=N/A speed=18.1x    frame=26924 fps=435 q=-0.0 size=N/A time=00:18:42.95 bitrate=N/A speed=18.1x    frame=27150 fps=435 q=-0.0 size=N/A time=00:18:52.38 bitrate=N/A speed=18.1x    frame=27388 fps=435 q=-0.0 size=N/A time=00:19:02.30 bitrate=N/A speed=18.1x    frame=27612 fps=435 q=-0.0 size=N/A time=00:19:11.65 bitrate=N/A speed=18.1x    frame=27848 fps=435 q=-0.0 size=N/A time=00:19:21.49 bitrate=N/A speed=18.1x    frame=28077 fps=435 q=-0.0 size=N/A time=00:19:31.04 bitrate=N/A speed=18.1x    frame=28301 fps=435 q=-0.0 size=N/A time=00:19:40.38 bitrate=N/A speed=18.1x    frame=28512 fps=435 q=-0.0 size=N/A time=00:19:49.18 bitrate=N/A speed=18.1x    frame=28703 fps=434 q=-0.0 size=N/A time=00:19:57.15 bitrate=N/A speed=18.1x    frame=28927 fps=434 q=-0.0 size=N/A time=00:20:06.49 bitrate=N/A speed=18.1x    frame=29134 fps=434 q=-0.0 size=N/A time=00:20:15.13 bitrate=N/A speed=18.1x    frame=29332 fps=434 q=-0.0 size=N/A time=00:20:23.38 bitrate=N/A speed=18.1x    frame=29556 fps=434 q=-0.0 size=N/A time=00:20:32.73 bitrate=N/A speed=18.1x    frame=29762 fps=433 q=-0.0 size=N/A time=00:20:41.32 bitrate=N/A speed=18.1x    frame=29974 fps=433 q=-0.0 size=N/A time=00:20:50.16 bitrate=N/A speed=18.1x    frame=30210 fps=433 q=-0.0 size=N/A time=00:21:00.00 bitrate=N/A speed=18.1x    frame=30447 fps=434 q=-0.0 size=N/A time=00:21:09.89 bitrate=N/A speed=18.1x    frame=30697 fps=434 q=-0.0 size=N/A time=00:21:20.32 bitrate=N/A speed=18.1x    frame=30938 fps=434 q=-0.0 size=N/A time=00:21:30.37 bitrate=N/A speed=18.1x    frame=31173 fps=434 q=-0.0 size=N/A time=00:21:40.17 bitrate=N/A speed=18.1x    frame=31397 fps=434 q=-0.0 size=N/A time=00:21:49.51 bitrate=N/A speed=18.1x    frame=31613 fps=434 q=-0.0 size=N/A time=00:21:58.52 bitrate=N/A speed=18.1x    frame=31849 fps=434 q=-0.0 size=N/A time=00:22:08.36 bitrate=N/A speed=18.1x    frame=32086 fps=435 q=-0.0 size=N/A time=00:22:18.25 bitrate=N/A speed=18.1x    frame=32317 fps=435 q=-0.0 size=N/A time=00:22:27.88 bitrate=N/A speed=18.1x    frame=32539 fps=435 q=-0.0 size=N/A time=00:22:37.14 bitrate=N/A speed=18.1x    frame=32767 fps=435 q=-0.0 size=N/A time=00:22:46.65 bitrate=N/A speed=18.1x    frame=32997 fps=435 q=-0.0 size=N/A time=00:22:56.24 bitrate=N/A speed=18.1x    frame=33205 fps=435 q=-0.0 size=N/A time=00:23:04.92 bitrate=N/A speed=18.1x    frame=33409 fps=434 q=-0.0 size=N/A time=00:23:13.43 bitrate=N/A speed=18.1x    frame=33637 fps=434 q=-0.0 size=N/A time=00:23:22.94 bitrate=N/A speed=18.1x    frame=33877 fps=435 q=-0.0 size=N/A time=00:23:32.95 bitrate=N/A speed=18.1x    frame=34119 fps=435 q=-0.0 size=N/A time=00:23:43.04 bitrate=N/A speed=18.1x    frame=34354 fps=435 q=-0.0 size=N/A time=00:23:52.84 bitrate=N/A speed=18.1x    frame=34552 fps=435 q=-0.0 size=N/A time=00:24:01.10 bitrate=N/A speed=18.1x    frame=34760 fps=434 q=-0.0 size=N/A time=00:24:09.78 bitrate=N/A speed=18.1x    frame=35005 fps=435 q=-0.0 size=N/A time=00:24:20.00 bitrate=N/A speed=18.1x    [Parsed_ssim_10 @ 0000025d4da4b240] SSIM Y:0.994999 (23.009363) U:0.995218 (23.203779) V:0.995495 (23.463158) All:0.995118 (23.114119)
[out#0/null @ 0000025d4c480bc0] video:15062KiB audio:274140KiB subtitle:0KiB other streams:0KiB global headers:0KiB muxing overhead: unknown
frame=35053 fps=435 q=-0.0 Lsize=N/A time=00:24:22.00 bitrate=N/A speed=18.1x    
